<?xml version="1.0" standalone="no"?>
<!DOCTYPE svg PUBLIC "-//W3C//DTD SVG 20010904//EN"
 "http://www.w3.org/TR/2001/REC-SVG-20010904/DTD/svg10.dtd">
<svg version="1.0" xmlns="http://www.w3.org/2000/svg"
 width="473.000000pt" height="473.000000pt" viewBox="0 0 473.000000 473.000000"
 preserveAspectRatio="xMidYMid meet">
<metadata>
Created by potrace 1.14, written by Peter Selinger 2001-2017
</metadata>
<g transform="translate(0.000000,473.000000) scale(0.100000,-0.100000)"
fill="#000000" stroke="none">
<path d="M2045 3950 c-1044 -86 -1602 -575 -1655 -1449 -13 -231 10 -502 59
-674 50 -174 139 -328 255 -442 162 -160 448 -308 719 -371 l77 -18 0 -146 c0
-168 7 -190 66 -190 l34 0 0 156 0 157 43 -7 c341 -56 525 -70 816 -63 239 6
434 26 642 67 57 11 107 20 112 20 4 0 7 -74 7 -165 l0 -165 33 0 c55 0 57 8
57 191 l0 167 34 6 c72 14 225 71 331 123 456 227 629 506 665 1075 17 257
-12 511 -80 720 -199 606 -718 936 -1586 1008 -135 11 -493 11 -629 0z m645
-111 c791 -63 1281 -372 1465 -921 107 -321 109 -810 5 -1118 -123 -361 -454
-595 -1004 -710 -315 -65 -685 -96 -956 -80 -466 28 -846 109 -1095 232 -267
133 -414 275 -506 488 -76 176 -103 344 -102 635 0 243 19 377 78 553 185 551
675 858 1470 921 249 20 393 20 645 0z"/>
<path d="M2215 3703 c-924 -45 -1418 -406 -1511 -1102 -7 -58 -14 -161 -14
-228 0 -408 100 -689 307 -855 221 -177 461 -265 888 -327 368 -53 643 -50
1030 10 265 42 430 91 599 177 323 164 462 367 512 746 21 156 14 436 -15 576
-88 437 -346 724 -786 879 -264 94 -656 142 -1010 124z m-425 -763 l0 -90 -90
0 -90 0 0 90 0 90 90 0 90 0 0 -90z m1210 0 l0 -90 -90 0 -90 0 0 90 0 90 90
0 90 0 0 -90z m-1400 -190 l0 -90 -90 0 -90 0 0 90 0 90 90 0 90 0 0 -90z
m380 0 l0 -90 -90 0 -90 0 0 90 0 90 90 0 90 0 0 -90z m830 0 l0 -90 -90 0
-90 0 0 90 0 90 90 0 90 0 0 -90z m380 0 l0 -90 -90 0 -90 0 0 90 0 90 90 0
90 0 0 -90z m-570 -770 l0 -89 -92 -3 -93 -3 -3 -92 -3 -93 -89 0 -90 0 0 95
0 95 -95 0 -95 0 0 90 0 90 280 0 280 0 0 -90z"/>
</g>
</svg>
