<?xml version="1.0" encoding="UTF-8"?>
<svg width="375.339869px" height="322.568407px" viewBox="0 0 375.339869 322.568407" version="1.1" xmlns="http://www.w3.org/2000/svg" xmlns:xlink="http://www.w3.org/1999/xlink">
    <title>Logo</title>
    <defs>
        <linearGradient x1="14.3015993%" y1="24.1313121%" x2="95.0601914%" y2="74.5117128%" id="linearGradient-1">
            <stop stop-color="#9F75D5" offset="0%"></stop>
            <stop stop-color="#6541AB" offset="100%"></stop>
        </linearGradient>
    </defs>
    <g id="Logo" stroke="none" stroke-width="1" fill="none" fill-rule="evenodd">
        <g id="Group" transform="translate(101.908247, 265.568407)">
            <path d="M0,16 L9,16 L9,54 L4,54 C1.790861,54 2.705415e-16,52.209139 0,50 L0,16 L0,16 Z" id="Rectangle" fill="#43226E"></path>
            <path d="M171,16 L180,16 L180,50 C180,52.209139 178.209139,54 176,54 L171,54 L171,54 L171,16 Z" id="Rectangle-Copy" fill="#43226E"></path>
            <path d="M9,0 L171,0 L171,54 C159.645086,51.6776056 149.478419,50.5164085 140.5,50.5164085 C127.032372,50.5164085 120.191268,52.8128622 98.4208965,55 C76.6505247,57.1871378 77.8885318,51.6491464 63.7555856,51.6491464 C49.6226394,51.6491464 49.1156969,57 34.7437979,57 C25.1625319,57 16.581266,56 9,54 L9,0 Z" id="Rectangle" fill="#FFFFFF"></path>
        </g>
        <path d="M187.942282,-5.00021654 L189.936956,-4.97958613 C237.393661,-4.21149851 292.360228,3.21401079 330.869133,33.4168651 C359.551854,55.9129621 379.412332,90.9238723 380.308403,145.398893 L380.308403,145.398893 L380.339868,149.228076 C380.34219,183.806099 374.505546,207.301543 364.972763,224.36358 C352.800709,246.149457 334.555503,257.656309 313.769201,267.876082 L313.769201,267.876082 L311.569124,268.949311 C296.411143,276.290626 272.635309,282.104704 248.12249,285.891525 L248.12249,285.891525 L245.393431,286.304493 C243.100226,286.644305 240.803346,286.966623 238.509401,287.271125 L238.509401,287.271125 L235.77972,287.625267 C233.032699,287.973428 230.293677,288.295782 227.574062,288.591784 L227.574062,288.591784 L224.873196,288.877785 L222.187505,289.146225 C217.256932,289.624432 212.416986,290.012831 207.737889,290.308191 L207.737889,290.308191 L205.217872,290.459155 C203.951525,290.530892 202.698197,290.595596 201.459329,290.653201 L201.459329,290.653201 L199.027634,290.757891 C198.211103,290.790185 197.401473,290.819278 196.599176,290.845151 L196.599176,290.845151 L194.239261,290.912525 L191.923915,290.960822 C190.765918,290.98042 189.626357,290.99268 188.506688,291 L188.506688,291 L186.836827,291 C183.526237,290.983193 180.041964,290.904224 176.421625,290.7622 L176.421625,290.7622 L174.007672,290.659119 L171.557049,290.537734 C171.138981,290.515639 170.719411,290.492763 170.298391,290.469107 L170.298391,290.469107 L167.798058,290.320545 L165.259235,290.15348 L162.700062,289.969068 C162.265055,289.936389 161.828917,289.902949 161.391702,289.86875 L161.391702,289.86875 L158.802363,289.658394 C158.361478,289.621255 157.919622,289.583364 157.476845,289.544723 L157.476845,289.544723 L154.847531,289.307458 L152.192129,289.052093 L149.520406,288.779409 L146.834704,288.489518 L144.140982,288.182938 L142.781468,288.02221 L140.081966,287.691105 C138.72022,287.520071 137.356329,287.342683 135.991685,287.159006 L135.991685,287.159006 L133.286054,286.786701 C126.927406,285.892526 120.572368,284.862854 114.361257,283.704666 L114.361257,283.704666 L111.724456,283.203531 C92.9622614,279.569601 75.7106485,274.730731 63.7774069,268.952537 C42.3451091,258.574804 23.4340199,247.196975 10.8299493,225.181921 C1.02502404,208.056029 -5,184.369202 -5,149.248703 C-5,93.3694738 14.5552912,57.4740595 43.2176135,34.4123334 C81.7862648,3.3799675 137.432123,-4.20371813 185.40872,-4.97968007 L185.40872,-4.97968007 L187.359512,-4.99533599 L187.942282,-5.00021654 Z" id="Path-Copy" stroke="#43226E" stroke-width="10" fill="#FFFFFF"></path>
        <path d="M187.431621,270.431593 L187.430621,270.431593 L186.93889,270.431593 C184.042753,270.416751 180.995062,270.347547 177.828576,270.223409 L175.700346,270.132529 L175.700346,270.132529 L173.539074,270.025476 C173.176228,270.006291 172.812096,269.986437 172.446722,269.965916 L170.239932,269.834796 L170.239932,269.834796 L168.005494,269.68776 L168.005494,269.68776 L165.745564,269.524912 C165.366905,269.496459 164.987273,269.467351 164.606714,269.437591 L162.31259,269.251218 C161.928502,269.218856 161.543575,269.185847 161.157857,269.152192 L158.834393,268.942526 L158.834393,268.942526 L156.494066,268.717461 L156.494066,268.717461 L154.139031,268.4771 L154.139031,268.4771 L151.771447,268.221546 L151.771447,268.221546 L149.39347,267.950902 C148.996394,267.904543 148.598975,267.857559 148.201258,267.809953 L145.811736,267.516868 C144.615545,267.366609 143.417479,267.210788 142.218752,267.049463 L139.820773,266.719492 C134.225108,265.932517 128.632646,265.026523 123.166695,264.007412 L120.832249,263.563741 C104.550383,260.409808 89.565654,256.245399 79.2073921,251.229825 C46.5996989,235.440855 20.4316215,217.302783 20.4316215,148.568407 C20.4316215,35.0985758 113.269408,16.7607201 185.708849,15.5862249 L187.430621,15.5724067 L187.431621,15.5684067 L187.669621,15.5684067 L187.908247,15.5684067 L187.907621,15.5724067 L189.63102,15.5862249 C261.346067,16.7489751 353.053532,34.733535 354.880509,145.192773 L354.908247,148.568407 C354.908247,215.928096 329.776426,234.695094 298.081053,250.279282 L296.132477,251.229825 L296.132477,251.229825 C282.929305,257.622933 262.209346,262.633123 240.867548,265.930464 L238.449209,266.296413 C236.432331,266.595243 234.412233,266.878718 232.394707,267.146561 L229.975279,267.460452 C227.557826,267.766803 225.147409,268.050485 222.754031,268.311018 L220.366704,268.563818 L220.366704,268.563818 L217.99296,268.801078 C213.654905,269.221747 209.396537,269.563539 205.279499,269.823504 L203.048229,269.95717 C201.939972,270.019928 200.843062,270.076559 199.758747,270.127005 L197.607284,270.21963 C196.895974,270.247744 196.190634,270.273091 195.491633,270.295653 L193.414019,270.354967 L193.414019,270.354967 L191.376663,270.397466 C190.368421,270.414494 189.376109,270.425177 188.400979,270.431593 L187.907621,270.431593 L187.908247,270.431593 L187.431621,270.431593 Z" id="Path" fill="url(#linearGradient-1)"></path>
        <g id="Group-2" transform="translate(92.908247, 82.568407)" fill="#FFFFFF">
            <path d="M19,19 L19,38 L0,38 L0,19 L19,19 Z M57,19 L57,38 L38,38 L38,19 L57,19 Z M38,0 L38,19 L19,19 L19,0 L38,0 Z" id="Shape"></path>
        </g>
        <g id="Group-2-Copy" transform="translate(213.908247, 82.568407)" fill="#FFFFFF">
            <path d="M19,19 L19,38 L0,38 L0,19 L19,19 Z M57,19 L57,38 L38,38 L38,19 L57,19 Z M38,0 L38,19 L19,19 L19,0 L38,0 Z" id="Shape"></path>
        </g>
        <polygon id="Path" fill="#FFFFFF" transform="translate(185.408247, 197.568407) scale(1, -1) translate(-185.408247, -197.568407) " points="156.908247 216.568407 156.908247 197.568407 175.908247 197.568407 175.908247 178.568407 194.908247 178.568407 194.908247 197.568407 213.908247 197.568407 213.908247 216.568407"></polygon>
    </g>
</svg>