<?xml version="1.0" encoding="UTF-8"?>
<svg width="227px" height="67px" viewBox="0 0 227 67" version="1.1" xmlns="http://www.w3.org/2000/svg" xmlns:xlink="http://www.w3.org/1999/xlink">
    <title>logo-dark</title>
    <g id="Page-1" stroke="none" stroke-width="1" fill="none" fill-rule="evenodd">
        <g id="Artboard" transform="translate(-137.000000, -345.000000)" fill-rule="nonzero">
            <g id="Group" transform="translate(137.800000, 342.000000)">
                <g id="chameleon-svgrepo-com" transform="translate(36.000000, 36.500000) scale(-1, 1) translate(-36.000000, -36.500000) translate(0.000000, 3.000000)">
                    <path d="M42.6337792,40 C41.1851026,40 39.8537799,39.0332207 39.4411835,37.5534339 L37.1253551,29.2542503 C36.6644622,27.6022822 37.5095418,25.8652181 39.0847509,25.2260032 L46.4448324,22.2421165 C48.1461369,21.551844 50.0786528,22.3879954 50.7607043,24.1089244 C51.4429744,25.8298535 50.6164704,27.7846308 48.9149474,28.4742402 L44.3248125,30.3353014 L45.8298715,35.7299476 C46.3279155,37.5140908 45.3010138,39.3694053 43.5369894,39.8726875 C43.235628,39.9591097 42.9322997,40 42.6337792,40 Z" id="Path" fill="#007348"></path>
                    <path d="M21.6337684,40 C20.1850899,40 18.8537655,39.0332207 18.4411685,37.5534339 L16.1253372,29.2542503 C15.6644437,27.6022822 16.5097429,25.8652181 18.0847355,25.2260032 L25.4448265,22.2421165 C27.1461332,21.551844 29.0786516,22.3879954 29.760704,24.1089244 C30.442975,25.8298535 29.6164699,27.7846308 27.9149447,28.4742402 L23.3250224,30.3353014 L24.8300833,35.7299476 C25.328128,37.5140908 24.3014435,39.3694053 22.5371983,39.8726875 C22.2358365,39.9591097 21.9322893,40 21.6337684,40 Z" id="Path" fill="#007348"></path>
                    <path d="M60.5885441,7.57732604 C57.2302931,3.46260892 52.3479079,0.652547485 46.8086397,0.0210853445 C46.8084213,0.0210853445 46.8082028,0.0210853445 46.8079844,0.0210853445 C46.7112105,0.00680880916 46.6124705,0 46.511983,0 C45.3522253,0 44.4117927,0.94510664 44.4117927,2.11117012 L44.4117927,8.57953882 C40.9987105,6.92719459 37.1723186,6.00141618 33.1305337,6.00141618 L26.0376404,6.00141618 C11.657432,6.00141618 0,17.7220124 0,32.1804089 L0,49.9028606 C0,59.3302059 7.6280989,67 17.0046815,67 C24.856256,67 31.2444257,60.5775358 31.2444257,52.6830511 C31.2444257,46.0145912 25.84868,40.5895078 19.2167188,40.5895078 C13.5603608,40.5895078 8.95868541,45.2164231 8.95868541,50.9035359 C8.95868541,55.8056588 12.925323,59.7940835 17.8009363,59.7940835 C19.5570658,59.7940835 20.9807126,58.3626961 20.9807126,56.5970182 C20.9807126,54.8311206 19.5568474,53.3997332 17.8009363,53.3997332 C16.4319024,53.3997332 15.317801,52.2797939 15.317801,50.9033162 C15.317801,48.7420684 17.0667217,46.9834189 19.2165004,46.9834189 C22.3421007,46.9834189 24.8846547,49.5400169 24.8846547,52.6826118 C24.8846547,57.0512316 21.3494583,60.60543 17.0044631,60.60543 C11.1346782,60.60543 6.35911564,55.8039017 6.35911564,49.9024213 L6.35911564,32.1799696 L59.7490359,32.1799696 C66.5149078,32.1799696 72,26.6648342 72,19.8621749 C72,13.3443874 66.9625144,8.01155236 60.5885441,7.57732604 Z" id="Path" fill="#05CE7C"></path>
                    <path d="M37.6338057,40 C36.1851179,40 34.8535665,39.0332207 34.4409669,37.5534339 L32.1253393,29.2542503 C31.6644429,27.6022822 32.5097475,25.8652181 34.0845316,25.2260032 L41.4446696,22.2421165 C43.1462057,21.551844 45.0787363,22.3879954 45.7607931,24.1089244 C46.4428499,25.8298535 45.6165581,27.7846308 43.915022,28.4742402 L39.3250705,30.3353014 L40.830141,35.7299476 C41.3281889,37.5140908 40.3014978,39.3694053 38.5370228,39.8726875 C38.235659,39.9591097 37.9321099,40 37.6338057,40 Z" id="Path" fill="#00945E"></path>
                    <path d="M15.6339524,40 C14.1852522,40 12.8539079,39.0332207 12.4410863,37.5534339 L10.1254388,29.2542503 C9.66431989,27.6022822 10.5096317,25.8652181 12.0846479,25.2260032 L19.4446305,22.2421165 C21.1459626,21.551844 23.0787284,22.3879954 23.760791,24.1089244 C24.4428537,25.8298535 23.6165548,27.7846308 21.9150041,28.4742402 L17.3250132,30.3353014 L18.8298781,35.7299476 C19.3279302,37.5140908 18.3012304,39.3694053 16.5369588,39.8726875 C16.2358109,39.9591097 15.9322592,40 15.6339524,40 Z" id="Path" fill="#00945E"></path>
                    <g id="Group" transform="translate(53.000000, 12.000000)">
                        <circle id="Oval" fill="#00945E" cx="4" cy="4" r="4"></circle>
                        <circle id="Oval" fill="#333E48" cx="2.73968162" cy="2.91496382" r="1.16028944"></circle>
                    </g>
                    <g id="Group" transform="translate(11.000000, 8.000000)" fill="#28B07F">
                        <ellipse id="Oval" cx="7.39887579" cy="4.87036161" rx="1" ry="1"></ellipse>
                        <ellipse id="Oval" cx="8.99790587" cy="0.821426157" rx="1" ry="1"></ellipse>
                        <ellipse id="Oval" cx="0.613909402" cy="5.43528219" rx="1" ry="1"></ellipse>
                        <path d="M3.94797752,3.08090571 C3.94797752,2.76863805 3.673096,2.51578236 3.33406811,2.51578236 C2.99504023,2.51578236 2.71993828,2.76863805 2.71993828,3.08090571 C2.71993828,3.39236228 2.99504023,3.64542075 3.33406811,3.64542075 C3.673096,3.64542075 3.94797752,3.39236228 3.94797752,3.08090571 Z" id="Path"></path>
                        <ellipse id="Oval" cx="12.4688637" cy="1.95086178" rx="1" ry="1"></ellipse>
                        <ellipse id="Oval" cx="27.3860906" cy="0.821426157" rx="1" ry="1"></ellipse>
                        <ellipse id="Oval" cx="26.0072743" cy="4.86995607" rx="1" ry="1"></ellipse>
                        <ellipse id="Oval" cx="14.3108123" cy="4.30544103" rx="1" ry="1"></ellipse>
                        <ellipse id="Oval" cx="17.8467982" cy="0.56471781" rx="1" ry="1"></ellipse>
                        <path d="M23.3375951,1.38614397 C23.3375951,1.07407908 23.0627135,0.821020615 22.7236857,0.821020615 C22.3846578,0.821020615 22.1097763,1.07407908 22.1097763,1.38614397 C22.1097763,1.69760054 22.3846578,1.95086178 22.7236857,1.95086178 C23.0624931,1.95086178 23.3375951,1.69760054 23.3375951,1.38614397 Z" id="Path"></path>
                        <ellipse id="Oval" cx="20.5854734" cy="4.30544103" rx="1" ry="1"></ellipse>
                    </g>
                </g>
                <g id="chameleon" transform="translate(59.568000, 8.400000)" fill="#FFFFFF">
                    <path d="M3.904,24.192 C1.30133333,22.272 1.42108547e-14,19.7013333 1.42108547e-14,16.48 C1.42108547e-14,16.3733333 1.42108547e-14,16.2986667 1.42108547e-14,16.256 L1.42108547e-14,16.256 C1.42108547e-14,16.2133333 1.42108547e-14,16.1386667 1.42108547e-14,16.032 C1.42108547e-14,12.8106667 1.30133333,10.24 3.904,8.32 L3.904,8.32 C5.46133333,7.168 7.21066667,6.592 9.152,6.592 C11.0933333,6.592 12.8426667,7.15733333 14.4,8.288 L14.4,8.288 L11.68,12.064 C10.9546667,11.5306667 10.1333333,11.264 9.216,11.264 C8.29866667,11.264 7.47733333,11.5306667 6.752,12.064 L6.752,12.064 C5.344,13.0453333 4.64,14.3893333 4.64,16.096 C4.64,16.16 4.64,16.2133333 4.64,16.256 L4.64,16.256 C4.64,16.2986667 4.64,16.352 4.64,16.416 C4.64,18.1226667 5.344,19.4666667 6.752,20.448 L6.752,20.448 C7.47733333,20.9813333 8.29866667,21.248 9.216,21.248 C10.1333333,21.248 10.9546667,20.9813333 11.68,20.448 L11.68,20.448 L14.4,24.224 C12.8426667,25.3546667 11.0933333,25.92 9.152,25.92 C7.21066667,25.92 5.46133333,25.344 3.904,24.192 Z" id="c"></path>
                    <path d="M21.888,14.144 L21.888,25.6 L17.216,25.6 L17.216,0 L21.888,0 L21.888,7.68 C22.9973333,6.99733333 24.2026667,6.656 25.504,6.656 C27.3813333,6.656 28.992,7.312 30.336,8.624 C31.68,9.936 32.3733333,11.5306667 32.416,13.408 L32.416,13.408 L32.416,25.6 L27.776,25.6 L27.776,14.144 C27.776,13.3546667 27.4826667,12.6826667 26.896,12.128 C26.3093333,11.5733333 25.6213333,11.296 24.832,11.296 C24.0213333,11.296 23.3333333,11.5733333 22.768,12.128 C22.2026667,12.6826667 21.9093333,13.3546667 21.888,14.144 Z" id="h"></path>
                    <path d="M53.024,6.976 L48.352,6.976 L48.352,8.32 C47.4773333,7.616 46.4853333,7.168 45.376,6.976 L45.376,6.976 C44.8213333,6.848 44.2666667,6.784 43.712,6.784 C42.7946667,6.784 41.8986667,6.944 41.024,7.264 L41.024,7.264 C38.976,8.16 37.472,9.61066667 36.512,11.616 L36.512,11.616 C35.9573333,13.1306667 35.68,14.7093333 35.68,16.352 C35.68,17.9733333 35.9573333,19.5413333 36.512,21.056 L36.512,21.056 C37.5786667,23.3813333 39.328,24.928 41.76,25.696 L41.76,25.696 C42.3573333,25.8453333 42.9546667,25.92 43.552,25.92 C44.1706667,25.92 44.7786667,25.8453333 45.376,25.696 L45.376,25.696 C46.464,25.4826667 47.456,25.0346667 48.352,24.352 L48.352,24.352 L48.352,25.568 L53.024,25.568 L53.024,6.976 Z M48.352,18.368 C47.904,19.9893333 46.8586667,20.992 45.216,21.376 L45.216,21.376 C45.0026667,21.4186667 44.768,21.44 44.512,21.44 C43.7653333,21.44 43.104,21.216 42.528,20.768 L42.528,20.768 C41.4186667,19.872 40.768,18.72 40.576,17.312 L40.576,17.312 C40.512,16.9706667 40.48,16.6186667 40.48,16.256 C40.48,15.8933333 40.512,15.5413333 40.576,15.2 L40.576,15.2 C40.768,13.8133333 41.4186667,12.672 42.528,11.776 L42.528,11.776 C43.104,11.3066667 43.7653333,11.072 44.512,11.072 C44.7466667,11.072 44.9813333,11.104 45.216,11.168 L45.216,11.168 C46.8586667,11.5306667 47.904,12.5333333 48.352,14.176 L48.352,14.176 L48.352,18.368 Z" id="a"></path>
                    <path d="M56.224,25.6 L60.896,25.6 L60.896,14.016 C60.896,13.9946667 60.896,13.9786667 60.896,13.968 C60.896,13.9573333 60.896,13.9413333 60.896,13.92 C60.896,13.216 61.1466667,12.6133333 61.648,12.112 C62.1493333,11.6106667 62.752,11.36 63.456,11.36 C64.16,11.36 64.7626667,11.6106667 65.264,12.112 C65.7653333,12.6133333 66.016,13.216 66.016,13.92 C66.016,13.9413333 66.016,13.9733333 66.016,14.016 L66.016,14.016 L66.016,25.6 L70.688,25.6 L70.688,13.92 C70.688,13.216 70.9386667,12.6133333 71.44,12.112 C71.9413333,11.6106667 72.544,11.36 73.248,11.36 C73.952,11.36 74.5546667,11.6106667 75.056,12.112 C75.5573333,12.6133333 75.808,13.216 75.808,13.92 L75.808,25.6 L80.48,25.6 L80.48,12.64 C80.48,10.976 79.888,9.55733333 78.704,8.384 C77.52,7.21066667 76.096,6.624 74.432,6.624 C72.3413333,6.624 70.688,7.47733333 69.472,9.184 L69.472,9.184 C68.192,7.49866667 66.496,6.656 64.384,6.656 C63.104,6.656 61.9413333,6.99733333 60.896,7.68 L60.896,7.68 L60.896,6.912 L56.224,6.912 L56.224,25.6 Z" id="m"></path>
                    <path d="M100.928,15.872 C100.928,12.7786667 99.6266667,10.2826667 97.024,8.384 C95.5306667,7.27466667 93.856,6.72 92,6.72 C90.144,6.72 88.4693333,7.27466667 86.976,8.384 C84.3733333,10.304 83.072,12.8746667 83.072,16.096 C83.072,16.1173333 83.072,16.1546667 83.072,16.208 C83.072,16.2613333 83.072,16.2986667 83.072,16.32 C83.072,16.3413333 83.072,16.3786667 83.072,16.432 C83.072,16.4853333 83.072,16.5226667 83.072,16.544 C83.072,19.7866667 84.3733333,22.368 86.976,24.288 C88.4693333,25.376 90.1546667,25.92 92.032,25.92 L92.448,25.92 C94.9013333,25.92 97.1093333,25.1733333 99.072,23.68 L96.352,19.936 C95.2426667,20.896 93.952,21.376 92.48,21.376 C92.032,21.376 91.648,21.344 91.328,21.28 C90.3893333,21.0666667 89.6053333,20.5973333 88.976,19.872 C88.3466667,19.1466667 87.9786667,18.3146667 87.872,17.376 L100.928,17.376 L100.928,15.872 Z M88.032,14.368 C88.1813333,13.408 88.6346667,12.608 89.392,11.968 C90.1493333,11.328 91.0186667,11.008 92,11.008 C92.9813333,11.008 93.8506667,11.328 94.608,11.968 C95.3653333,12.608 95.8186667,13.408 95.968,14.368 L88.032,14.368 Z" id="e"></path>
                    <polygon id="l" points="103.52 25.6 108.192 25.6 108.192 0 103.52 0"></polygon>
                    <path d="M128.64,15.872 C128.64,12.7786667 127.338667,10.2826667 124.736,8.384 C123.242667,7.27466667 121.568,6.72 119.712,6.72 C117.856,6.72 116.181333,7.27466667 114.688,8.384 C112.085333,10.304 110.784,12.8746667 110.784,16.096 C110.784,16.1173333 110.784,16.1546667 110.784,16.208 C110.784,16.2613333 110.784,16.2986667 110.784,16.32 C110.784,16.3413333 110.784,16.3786667 110.784,16.432 C110.784,16.4853333 110.784,16.5226667 110.784,16.544 C110.784,19.7866667 112.085333,22.368 114.688,24.288 C116.181333,25.376 117.866667,25.92 119.744,25.92 L120.16,25.92 C122.613333,25.92 124.821333,25.1733333 126.784,23.68 L124.064,19.936 C122.954667,20.896 121.664,21.376 120.192,21.376 C119.744,21.376 119.36,21.344 119.04,21.28 C118.101333,21.0666667 117.317333,20.5973333 116.688,19.872 C116.058667,19.1466667 115.690667,18.3146667 115.584,17.376 L128.64,17.376 L128.64,15.872 Z M115.744,14.368 C115.893333,13.408 116.346667,12.608 117.104,11.968 C117.861333,11.328 118.730667,11.008 119.712,11.008 C120.693333,11.008 121.562667,11.328 122.32,11.968 C123.077333,12.608 123.530667,13.408 123.68,14.368 L115.744,14.368 Z" id="e"></path>
                    <path d="M148.544,13.152 C147.797333,10.8053333 146.346667,9.00266667 144.192,7.744 C142.805333,6.93333333 141.354667,6.528 139.84,6.528 L139.488,6.528 C137.973333,6.528 136.533333,6.93333333 135.168,7.744 C132.992,9.00266667 131.530667,10.8053333 130.784,13.152 C130.592,14.0693333 130.496,14.9866667 130.496,15.904 C130.496,17.1413333 130.645333,18.272 130.944,19.296 C131.498667,21.216 132.570667,22.8 134.16,24.048 C135.749333,25.296 137.525333,25.92 139.488,25.92 L139.84,25.92 C141.397333,25.92 142.848,25.5253333 144.192,24.736 C146.325333,23.456 147.722667,21.6426667 148.384,19.296 C148.682667,18.272 148.832,17.1413333 148.832,15.904 C148.832,14.9866667 148.736,14.0693333 148.544,13.152 Z M143.872,18.112 C143.509333,19.1573333 142.805333,20.0106667 141.76,20.672 C141.141333,21.0773333 140.48,21.28 139.776,21.28 L139.552,21.28 C138.848,21.28 138.186667,21.0773333 137.568,20.672 C136.544,20.0106667 135.84,19.1573333 135.456,18.112 C135.264,17.5573333 135.168,16.928 135.168,16.224 C135.168,15.52 135.264,14.8906667 135.456,14.336 C135.84,13.2906667 136.544,12.448 137.568,11.808 C138.186667,11.4026667 138.848,11.2 139.552,11.2 C139.594667,11.2 139.632,11.2 139.664,11.2 C139.696,11.2 139.733333,11.2 139.776,11.2 C140.48,11.2 141.141333,11.4026667 141.76,11.808 C142.805333,12.448 143.509333,13.2906667 143.872,14.336 C144.064,14.8906667 144.16,15.52 144.16,16.224 C144.16,16.928 144.064,17.5573333 143.872,18.112 Z" id="o"></path>
                    <path d="M151.392,25.6 L156.064,25.6 L156.064,14.304 C156.064,13.4933333 156.352,12.8 156.928,12.224 C157.504,11.648 158.197333,11.36 159.008,11.36 C159.818667,11.36 160.512,11.648 161.088,12.224 C161.664,12.8 161.952,13.4933333 161.952,14.304 L161.952,14.304 L161.952,25.6 L166.624,25.6 L166.624,13.312 C166.624,11.4773333 165.957333,9.91466667 164.624,8.624 C163.290667,7.33333333 161.696,6.688 159.84,6.688 C158.474667,6.688 157.216,7.072 156.064,7.84 L156.064,7.84 L156.064,6.912 L151.392,6.912 L151.392,25.6 Z" id="n"></path>
                </g>
            </g>
        </g>
    </g>
</svg>