<?xml version="1.0" encoding="UTF-8"?>
<svg width="404px" height="348px" viewBox="0 0 404 348" version="1.1" xmlns="http://www.w3.org/2000/svg" xmlns:xlink="http://www.w3.org/1999/xlink">
    <title>Logo</title>
    <defs>
        <linearGradient x1="14.3015993%" y1="24.1313121%" x2="95.0601914%" y2="74.5117128%" id="linearGradient-1">
            <stop stop-color="#9F75D5" offset="0%"></stop>
            <stop stop-color="#6541AB" offset="100%"></stop>
        </linearGradient>
    </defs>
    <g id="Logo" stroke="none" stroke-width="1" fill="none" fill-rule="evenodd">
        <g id="Group" transform="translate(115.908247, 278.568407)">
            <path d="M0,16 L9,16 L9,54 L4,54 C1.790861,54 2.705415e-16,52.209139 0,50 L0,16 L0,16 Z" id="Rectangle" fill="#43226E"></path>
            <path d="M171,16 L180,16 L180,50 C180,52.209139 178.209139,54 176,54 L171,54 L171,54 L171,16 Z" id="Rectangle-Copy" fill="#43226E"></path>
            <path d="M9,0 L171,0 L171,54 C159.645086,51.6776056 149.478419,50.5164085 140.5,50.5164085 C127.032372,50.5164085 120.191268,52.8128622 98.4208965,55 C76.6505247,57.1871378 77.8885318,51.6491464 63.7555856,51.6491464 C49.6226394,51.6491464 49.1156969,57 34.7437979,57 C25.1625319,57 16.581266,56 9,54 L9,0 Z" id="Rectangle" fill="#FFFFFF"></path>
        </g>
        <path d="M201.942282,7.99978346 L203.936956,8.02041387 C251.393661,8.78850149 306.360228,16.2140108 344.869133,46.4168651 C373.551854,68.9129621 393.412332,103.923872 394.308403,158.398893 L394.308403,158.398893 L394.339868,162.228076 C394.34219,196.806099 388.505546,220.301543 378.972763,237.36358 C366.800709,259.149457 348.555503,270.656309 327.769201,280.876082 L327.769201,280.876082 L325.569124,281.949311 C310.411143,289.290626 286.635309,295.104704 262.12249,298.891525 L262.12249,298.891525 L259.393431,299.304493 C257.100226,299.644305 254.803346,299.966623 252.509401,300.271125 L252.509401,300.271125 L249.77972,300.625267 C247.032699,300.973428 244.293677,301.295782 241.574062,301.591784 L241.574062,301.591784 L238.873196,301.877785 L236.187505,302.146225 C231.256932,302.624432 226.416986,303.012831 221.737889,303.308191 L221.737889,303.308191 L219.217872,303.459155 C217.951525,303.530892 216.698197,303.595596 215.459329,303.653201 L215.459329,303.653201 L213.027634,303.757891 C212.211103,303.790185 211.401473,303.819278 210.599176,303.845151 L210.599176,303.845151 L208.239261,303.912525 L205.923915,303.960822 C204.765918,303.98042 203.626357,303.99268 202.506688,304 L202.506688,304 L200.836827,304 C197.526237,303.983193 194.041964,303.904224 190.421625,303.7622 L190.421625,303.7622 L188.007672,303.659119 L185.557049,303.537734 C185.138981,303.515639 184.719411,303.492763 184.298391,303.469107 L184.298391,303.469107 L181.798058,303.320545 L179.259235,303.15348 L176.700062,302.969068 C176.265055,302.936389 175.828917,302.902949 175.391702,302.86875 L175.391702,302.86875 L172.802363,302.658394 C172.361478,302.621255 171.919622,302.583364 171.476845,302.544723 L171.476845,302.544723 L168.847531,302.307458 L166.192129,302.052093 L163.520406,301.779409 L160.834704,301.489518 L158.140982,301.182938 L156.781468,301.02221 L154.081966,300.691105 C152.72022,300.520071 151.356329,300.342683 149.991685,300.159006 L149.991685,300.159006 L147.286054,299.786701 C140.927406,298.892526 134.572368,297.862854 128.361257,296.704666 L128.361257,296.704666 L125.724456,296.203531 C106.962261,292.569601 89.7106485,287.730731 77.7774069,281.952537 C56.3451091,271.574804 37.4340199,260.196975 24.8299493,238.181921 C15.025024,221.056029 9,197.369202 9,162.248703 C9,106.369474 28.5552912,70.4740595 57.2176135,47.4123334 C95.7862648,16.3799675 151.432123,8.79628187 199.40872,8.02031993 L199.40872,8.02031993 L201.359512,8.00466401 L201.942282,7.99978346 Z" id="Path-Copy" stroke="#43226E" stroke-width="10" fill="#FFFFFF"></path>
        <path d="M201.431621,283.431593 L201.430621,283.431593 L200.93889,283.431593 C198.042753,283.416751 194.995062,283.347547 191.828576,283.223409 L189.700346,283.132529 L189.700346,283.132529 L187.539074,283.025476 C187.176228,283.006291 186.812096,282.986437 186.446722,282.965916 L184.239932,282.834796 L184.239932,282.834796 L182.005494,282.68776 L182.005494,282.68776 L179.745564,282.524912 C179.366905,282.496459 178.987273,282.467351 178.606714,282.437591 L176.31259,282.251218 C175.928502,282.218856 175.543575,282.185847 175.157857,282.152192 L172.834393,281.942526 L172.834393,281.942526 L170.494066,281.717461 L170.494066,281.717461 L168.139031,281.4771 L168.139031,281.4771 L165.771447,281.221546 L165.771447,281.221546 L163.39347,280.950902 C162.996394,280.904543 162.598975,280.857559 162.201258,280.809953 L159.811736,280.516868 C158.615545,280.366609 157.417479,280.210788 156.218752,280.049463 L153.820773,279.719492 C148.225108,278.932517 142.632646,278.026523 137.166695,277.007412 L134.832249,276.563741 C118.550383,273.409808 103.565654,269.245399 93.2073921,264.229825 C60.5996989,248.440855 34.4316215,230.302783 34.4316215,161.568407 C34.4316215,48.0985758 127.269408,29.7607201 199.708849,28.5862249 L201.430621,28.5724067 L201.431621,28.5684067 L201.669621,28.5684067 L201.908247,28.5684067 L201.907621,28.5724067 L203.63102,28.5862249 C275.346067,29.7489751 367.053532,47.733535 368.880509,158.192773 L368.908247,161.568407 C368.908247,228.928096 343.776426,247.695094 312.081053,263.279282 L310.132477,264.229825 L310.132477,264.229825 C296.929305,270.622933 276.209346,275.633123 254.867548,278.930464 L252.449209,279.296413 C250.432331,279.595243 248.412233,279.878718 246.394707,280.146561 L243.975279,280.460452 C241.557826,280.766803 239.147409,281.050485 236.754031,281.311018 L234.366704,281.563818 L234.366704,281.563818 L231.99296,281.801078 C227.654905,282.221747 223.396537,282.563539 219.279499,282.823504 L217.048229,282.95717 C215.939972,283.019928 214.843062,283.076559 213.758747,283.127005 L211.607284,283.21963 C210.895974,283.247744 210.190634,283.273091 209.491633,283.295653 L207.414019,283.354967 L207.414019,283.354967 L205.376663,283.397466 C204.368421,283.414494 203.376109,283.425177 202.400979,283.431593 L201.907621,283.431593 L201.908247,283.431593 L201.431621,283.431593 Z" id="Path" fill="url(#linearGradient-1)"></path>
        <g id="Group-2" transform="translate(106.908247, 95.568407)" fill="#FFFFFF">
            <path d="M19,19 L19,38 L0,38 L0,19 L19,19 Z M57,19 L57,38 L38,38 L38,19 L57,19 Z M38,0 L38,19 L19,19 L19,0 L38,0 Z" id="Shape"></path>
        </g>
        <g id="Group-2-Copy" transform="translate(227.908247, 95.568407)" fill="#FFFFFF">
            <path d="M19,19 L19,38 L0,38 L0,19 L19,19 Z M57,19 L57,38 L38,38 L38,19 L57,19 Z M38,0 L38,19 L19,19 L19,0 L38,0 Z" id="Shape"></path>
        </g>
        <polygon id="Path" fill="#FFFFFF" transform="translate(199.408247, 210.568407) scale(1, -1) translate(-199.408247, -210.568407) " points="170.908247 229.568407 170.908247 210.568407 189.908247 210.568407 189.908247 191.568407 208.908247 191.568407 208.908247 210.568407 227.908247 210.568407 227.908247 229.568407"></polygon>
    </g>
</svg>